<svg
  xmlns="http://www.w3.org/2000/svg"
  width="1052"
  height="1052"
  viewBox="0 0 1052 1052"
  fill="none"
>
<rect width="1052" height="1052" fill="#0D0D0D" />
<path
    d="M420.765 610.039C420.765 602.202 419.546 595.236 417.107 589.14C414.843 583.045 410.751 577.472 404.83 572.421C398.908 567.371 390.549 562.495 379.751 557.792C369.128 552.916 355.544 547.953 339 542.902C320.888 537.329 304.169 531.147 288.843 524.355C273.692 517.389 260.456 509.378 249.136 500.322C237.816 491.092 229.021 480.555 222.752 468.713C216.482 456.696 213.348 442.851 213.348 427.177C213.348 411.678 216.569 397.571 223.013 384.858C229.631 372.145 238.948 361.173 250.965 351.943C263.156 342.539 277.523 335.311 294.068 330.261C310.612 325.036 328.899 322.424 348.926 322.424C377.139 322.424 401.434 327.648 421.81 338.098C442.36 348.547 458.121 362.566 469.092 380.156C480.238 397.745 485.811 417.163 485.811 438.41H420.765C420.765 425.871 418.065 414.812 412.667 405.234C407.442 395.481 399.431 387.819 388.633 382.246C378.01 376.673 364.513 373.886 348.143 373.886C332.643 373.886 319.756 376.237 309.48 380.939C299.205 385.642 291.543 391.998 286.492 400.009C281.442 408.02 278.917 417.076 278.917 427.177C278.917 434.318 280.571 440.848 283.88 446.77C287.189 452.517 292.239 457.915 299.031 462.966C305.823 467.842 314.357 472.457 324.632 476.811C334.907 481.165 347.011 485.345 360.943 489.35C382.015 495.62 400.389 502.586 416.062 510.249C431.736 517.737 444.798 526.271 455.247 535.849C465.696 545.428 473.533 556.312 478.758 568.503C483.982 580.52 486.595 594.191 486.595 609.516C486.595 625.538 483.373 639.993 476.929 652.88C470.486 665.594 461.255 676.478 449.239 685.534C437.396 694.416 423.116 701.295 406.397 706.171C389.852 710.874 371.392 713.225 351.016 713.225C332.73 713.225 314.705 710.786 296.941 705.91C279.352 701.034 263.33 693.632 248.875 683.706C234.42 673.605 222.926 661.066 214.393 646.088C205.859 630.937 201.592 613.26 201.592 593.059H267.161C267.161 605.424 269.251 615.96 273.431 624.667C277.785 633.375 283.793 640.515 291.456 646.088C299.118 651.487 308 655.493 318.101 658.105C328.376 660.717 339.348 662.023 351.016 662.023C366.342 662.023 379.142 659.847 389.417 655.493C399.866 651.139 407.703 645.043 412.928 637.207C418.152 629.37 420.765 620.314 420.765 610.039ZM836.644 513.645V658.889C831.245 666.029 822.798 673.866 811.304 682.399C799.984 690.759 784.92 697.986 766.111 704.082C747.303 710.177 723.879 713.225 695.84 713.225C671.981 713.225 650.125 709.219 630.271 701.208C610.418 693.023 593.264 681.093 578.809 665.419C564.528 649.746 553.47 630.676 545.633 608.21C537.796 585.57 533.877 559.795 533.877 530.886V504.501C533.877 475.766 537.448 450.166 544.588 427.7C551.902 405.06 562.352 385.903 575.936 370.229C589.52 354.555 605.89 342.713 625.047 334.702C644.378 326.516 666.234 322.424 690.616 322.424C721.789 322.424 747.564 327.648 767.94 338.098C788.49 348.373 804.338 362.653 815.484 380.939C826.63 399.226 833.683 420.124 836.644 443.635H772.381C770.291 430.399 766.198 418.557 760.103 408.107C754.182 397.658 745.648 389.473 734.502 383.552C723.531 377.456 709.25 374.409 691.661 374.409C676.509 374.409 663.187 377.282 651.692 383.029C640.198 388.776 630.62 397.223 622.957 408.369C615.468 419.514 609.808 433.098 605.977 449.121C602.146 465.143 600.23 483.429 600.23 503.979V530.886C600.23 551.784 602.407 570.332 606.761 586.528C611.289 602.724 617.732 616.395 626.092 627.541C634.625 638.687 644.987 647.133 657.178 652.88C669.369 658.453 683.127 661.24 698.453 661.24C713.43 661.24 725.708 660.021 735.286 657.583C744.865 654.97 752.44 651.923 758.013 648.439C763.76 644.782 768.201 641.299 771.336 637.99V562.495H692.183V513.645H836.644Z"
    fill="white"
  />
</svg>